<svg viewBox="0 0 890 867" xmlns="http://www.w3.org/2000/svg">
  <g class="hiddify-logo-icon" fill="#ffffff">  
    <path d=" M1.000001,589.468628   C2.771058,587.061707 4.274509,584.750183 6.362225,583.253601   C13.241864,578.322021 20.152021,573.388489 27.374897,568.988220   C55.219608,552.024841 83.171227,535.236572 111.119110,518.443176   C141.035187,500.467041 170.606247,481.863831 201.104828,464.933899   C214.929230,457.259918 234.865494,466.541107 234.924423,485.493042   C235.122406,549.156616 235.144989,612.821838 234.886475,676.484924   C234.829788,690.440002 245.391037,701.913086 260.223206,701.984985   C274.388977,702.053711 288.556580,702.115295 302.721161,701.968506   C317.918945,701.810974 328.015381,690.981079 328.011902,676.448914   C327.988892,580.452637 328.029297,484.456360 327.955780,388.460144   C327.948242,378.619659 332.308350,371.746094 340.550629,366.799286   C370.069794,349.082611 399.520233,331.251404 429.032501,313.523163   C453.091003,299.071075 477.205719,284.712616 501.284760,270.294739   C508.841125,265.770172 516.504211,261.403870 523.870178,256.585632   C538.573120,246.968094 557.312561,253.509216 561.498779,270.044769   C561.896606,271.616272 561.980408,273.301849 561.980591,274.934448   C562.001221,464.260437 562.001404,653.586426 561.997070,842.912415   C561.996765,855.779602 551.851807,865.993103 539.054138,865.995056   C476.389893,866.004883 413.725555,865.932617 351.061554,866.058777   C339.268738,866.082520 327.471558,854.817749 327.812958,842.959106   C328.460114,820.478577 327.720093,797.961487 328.100830,775.468811   C328.344574,761.069580 317.821533,748.448608 301.746094,748.917236   C288.091553,749.315308 274.414001,749.153076 260.750641,748.958679   C245.373535,748.739868 234.604294,759.816284 234.886185,774.567322   C235.319138,797.224792 234.917374,819.897156 235.031677,842.562317   C235.097214,855.560181 224.483521,866.035339 211.702454,866.024109   C149.538239,865.969727 87.373932,865.967468 25.209743,866.032288   C15.220128,866.042725 8.019124,861.657166 3.011859,853.226990   C2.723829,852.742065 2.163637,852.418884 1.365048,852.010254   C1.000000,764.645752 1.000000,677.291565 1.000001,589.468628  z"></path>
    <path d=" M889.000000,851.531372   C888.231567,852.584778 887.221069,853.014587 886.732178,853.778320   C881.798279,861.485413 875.059631,866.000061 865.673218,865.999939   C803.346436,865.999268 741.019287,865.899780 678.693054,866.087830   C666.900818,866.123352 654.920288,856.007141 654.929993,842.457703   C655.041687,686.807434 655.072449,531.156921 654.870667,375.506866   C654.853882,362.568451 665.330750,350.835724 679.770569,350.904541   C731.597229,351.151520 783.425903,351.001373 835.253784,351.001343   C844.419495,351.001343 853.588867,351.164459 862.749939,350.958557   C873.330750,350.720795 881.564941,354.543854 886.973267,363.869537   C887.366882,364.548401 888.008545,365.083405 888.767456,365.342651   C889.000000,527.020874 889.000000,689.041809 889.000000,851.531372  z"></path>
    <path d=" M656.166748,196.999588   C655.488342,187.585693 662.401367,183.094833 668.852112,179.173416   C710.332825,153.957153 752.019836,129.080063 793.642639,104.097580   C813.472412,92.195572 833.224854,80.161453 853.176758,68.467796   C864.763855,61.676704 878.157593,65.093384 885.164185,75.524017   C886.155518,76.999863 887.404785,78.302521 888.767334,79.342659   C889.000000,149.354233 889.000000,219.708450 889.000000,290.531342   C888.128052,291.713898 887.018982,292.269836 886.421631,293.166656   C881.593262,300.415466 875.484985,305.065918 866.209045,305.051208   C803.724426,304.951935 741.239502,304.930023 678.755127,305.075134   C669.498352,305.096619 658.258301,298.849792 656.265869,287.214081   C657.031067,284.951599 657.928101,283.271057 657.933777,281.587494   C658.022522,255.171783 658.031799,228.755524 657.918091,202.339996   C657.910400,200.557373 656.776733,198.779617 656.166748,196.999588  z"></path>
    <path d=" M656.079346,197.418610   C656.776733,198.779617 657.910400,200.557373 657.918091,202.339996   C658.031799,228.755524 658.022522,255.171783 657.933777,281.587494   C657.928101,283.271057 657.031067,284.951599 656.215820,286.836426   C655.588745,285.500671 655.041260,283.962494 655.038147,282.423218   C654.985596,256.140381 654.979797,229.857391 655.043152,203.574631   C655.047729,201.661545 655.661499,199.749939 656.079346,197.418610  z"></path>
  </g>
</svg>
